<?xml version="1.0" encoding="UTF-8" standalone="no"?>
<svg
   xmlns:dc="http://purl.org/dc/elements/1.1/"
   xmlns:cc="http://creativecommons.org/ns#"
   xmlns:rdf="http://www.w3.org/1999/02/22-rdf-syntax-ns#"
   xmlns:svg="http://www.w3.org/2000/svg"
   xmlns="http://www.w3.org/2000/svg"
   id="svg8894"
   version="1.1"
   viewBox="0 0 132.29167 152.06757"
   height="152.06757mm"
   width="132.29167mm">
  <defs
     id="defs8888" />
  <metadata
     id="metadata8891">
    <rdf:RDF>
      <cc:Work
         rdf:about="">
        <dc:format>image/svg+xml</dc:format>
        <dc:type
           rdf:resource="http://purl.org/dc/dcmitype/StillImage" />
        <dc:title></dc:title>
      </cc:Work>
    </rdf:RDF>
  </metadata>
  <g
     transform="translate(52.66268,31.886032)"
     id="layer1">
    <g
       transform="matrix(1.0405892,0,0,-1.0405892,55.77556,13.655899)"
       id="g1194">
      <path
         id="path1196"
         style="fill:#b32317;fill-opacity:1;fill-rule:evenodd;stroke:none"
         d="M 0,0 C -0.352,0.021 -1.325,-0.054 -1.343,0.368 -1.373,1.138 -1.404,1.911 -1.429,2.679 -1.496,4.22 -1.553,5.762 -1.615,7.3 -1.126,7.358 -0.637,7.453 -0.164,7.58 0.085,5.069 0.269,2.52 0,0 m -0.331,-2.842 c -3.903,0.56 -7.808,0.948 -11.752,0.948 -6.686,0 -15.252,-1.917 -16.001,-9.864 -0.69,-7.329 3.935,-14.679 7.466,-20.731 -0.533,-0.282 -1.025,-0.652 -1.582,-0.897 -0.709,-0.316 -1.131,1.077 -1.481,1.656 -0.74,1.197 -1.381,2.461 -2.021,3.715 -1.434,2.793 -2.75,5.674 -3.634,8.688 -0.989,3.353 -1.539,6.864 -0.598,10.29 1.019,3.74 4.245,5.733 7.643,7.045 6.8,2.617 15.15,1.445 22.18,0.709 -0.072,-0.518 -0.143,-1.039 -0.22,-1.559 m -2.843,-10.144 c -0.224,-0.124 -1.513,0.283 -1.837,0.334 -1.113,0.166 -2.229,0.279 -3.355,0.279 -1.971,0 -4.461,-0.364 -5.449,-2.337 -0.916,-1.819 -0.373,-4.267 0.319,-6.076 0.397,-1.027 0.784,-2.041 1.276,-3.025 0.559,-1.124 1.007,-1.391 0.127,-2.269 -1.959,3.069 -6.706,9.601 -4.035,13.347 2.554,3.589 10.014,1.887 13.567,1.25 -0.085,-0.261 -0.354,-1.363 -0.613,-1.503 m -27.809,-23.627 c -0.055,0.355 -0.416,1.265 -0.035,1.405 0.72,0.266 1.447,0.531 2.169,0.797 1.439,0.526 2.884,1.06 4.332,1.588 0.248,-0.432 0.504,-0.865 0.782,-1.286 -2.361,-1.062 -4.747,-1.843 -7.248,-2.504 m -1.168,5.351 c -0.06,0.22 -0.42,1.229 -0.178,1.32 0.528,0.192 1.05,0.383 1.573,0.576 1.207,0.446 2.411,0.889 3.617,1.336 0.244,-0.367 0.452,-0.763 0.615,-1.17 -1.877,-0.689 -3.753,-1.378 -5.627,-2.062 m -1.561,-5.966 c -0.701,3.898 -1.559,7.735 -2.785,11.503 -2.094,6.463 -6.336,13.697 -14.167,12.267 -3.618,-0.66 -6.893,-3.149 -9.636,-5.457 -2.901,-2.432 -5.473,-5.221 -7.908,-8.116 -0.304,0.313 -1.341,0.989 -1.453,1.396 -0.142,0.533 0.796,1.271 1.238,1.778 0.867,0.998 1.779,1.961 2.712,2.898 2.132,2.129 4.363,4.319 6.878,5.999 2.967,1.977 6.172,3.931 9.848,4.098 3.568,0.151 6.881,-1.901 8.932,-4.725 4.507,-6.201 6.424,-13.94 7.842,-21.362 -0.506,-0.061 -1.008,-0.146 -1.501,-0.279 m -10.59,-0.387 c -0.184,0.18 -0.166,1.518 -0.222,1.857 -0.166,1.065 -0.398,2.131 -0.726,3.159 -0.614,1.913 -1.518,3.937 -3.624,4.514 -2.003,0.546 -4.081,-0.639 -5.652,-1.783 -0.925,-0.674 -1.77,-1.444 -2.616,-2.217 -0.925,-0.844 -1.184,-1.776 -2.373,-1.071 2.315,2.83 6.839,9.098 11.202,8.081 4.432,-1.041 5.12,-9.097 5.625,-12.654 -0.291,-0.01 -1.392,-0.105 -1.614,0.114 m -26.413,13.094 c -1.704,1.922 -3.186,3.953 -4.629,6.077 0.296,0.196 1.09,0.902 1.35,0.565 0.477,-0.607 0.95,-1.216 1.429,-1.823 0.947,-1.216 1.899,-2.43 2.851,-3.648 -0.351,-0.376 -0.686,-0.768 -1.001,-1.171 m -5.238,7.19 c -0.261,0.444 -0.524,0.892 -0.785,1.337 3.467,1.886 6.914,3.834 10.087,6.189 5.233,3.884 11.31,10.428 7.222,17.241 -3.847,6.406 -11.703,9.657 -18.253,12.515 0.22,0.551 0.505,1.115 0.796,1.634 0.386,0.706 1.512,-0.209 2.144,-0.495 1.2,-0.534 2.386,-1.092 3.552,-1.689 2.754,-1.409 5.421,-2.943 7.94,-4.746 2.84,-2.032 5.559,-4.692 6.799,-8.024 1.282,-3.455 0.282,-7.201 -1.838,-10.112 -4.495,-6.17 -11.197,-10.063 -17.664,-13.85 m -4.072,9.698 c -0.048,0.252 -0.475,1.356 -0.389,1.558 0.1,0.238 1.414,0.682 1.707,0.826 0.955,0.478 1.954,0.983 2.806,1.625 1.526,1.151 3.297,2.749 3.176,4.849 -0.12,2.145 -2.108,3.79 -3.693,4.947 -0.912,0.667 -1.887,1.212 -2.874,1.765 -1.157,0.639 -1.716,0.537 -1.571,1.871 3.425,-1.369 10.73,-3.74 11.091,-8.189 0.377,-4.588 -6.986,-7.619 -10.253,-9.252 m 8.304,36.947 c 0.264,-0.237 1.169,-0.783 0.951,-1.111 -0.431,-0.644 -0.857,-1.277 -1.283,-1.915 -0.859,-1.275 -1.71,-2.552 -2.566,-3.829 -0.473,0.228 -0.955,0.431 -1.448,0.613 1.312,2.187 2.741,4.257 4.346,6.242 m 1.864,1.974 c 0.19,0.188 0.916,-0.698 1.088,-0.857 0.859,-0.814 1.73,-1.613 2.597,-2.405 1.494,-1.365 3.113,-2.681 4.76,-3.847 5.538,-3.935 13.207,-7.908 18.954,-2.163 5.227,5.228 5.803,14.546 6.459,21.452 0.585,-0.142 1.222,-0.229 1.817,-0.291 0.792,-0.081 0.271,-1.519 0.208,-2.189 -0.134,-1.4 -0.3,-2.797 -0.541,-4.18 -0.553,-3.098 -1.13,-6.2 -2.205,-9.167 -1.248,-3.426 -2.858,-6.49 -5.78,-8.759 -2.761,-2.146 -6.604,-2.085 -9.8,-1.104 -7.167,2.196 -13.113,7.532 -18.528,12.482 0.308,0.357 0.639,0.692 0.971,1.028 m 8.391,6.662 c 0.278,-0.031 1.023,-1.094 1.25,-1.341 0.737,-0.796 1.56,-1.472 2.427,-2.113 1.581,-1.165 3.514,-2.267 5.52,-1.504 1.992,0.756 2.86,3.01 3.519,4.849 0.372,1.027 0.575,2.131 0.821,3.189 0.137,0.602 0.204,1.211 0.293,1.816 0.076,0.468 0.566,0.343 0.994,0.402 -0.263,-3.68 -0.225,-11.231 -4.345,-12.988 -4.16,-1.769 -9.391,4.25 -11.871,6.855 0.232,0.134 1.157,0.864 1.392,0.835 m 28.31,-0.724 c 1.897,-0.538 3.789,-1.076 5.684,-1.616 -0.08,-0.219 -0.332,-1.256 -0.551,-1.195 -0.544,0.149 -1.08,0.298 -1.627,0.445 -1.241,0.343 -2.481,0.686 -3.727,1.028 0.074,0.447 0.148,0.893 0.221,1.338 m 0.67,5.685 c 2.477,-0.599 4.863,-1.308 7.243,-2.227 -0.129,-0.327 -0.348,-1.342 -0.749,-1.23 -0.74,0.21 -1.482,0.422 -2.218,0.634 -1.485,0.419 -2.966,0.84 -4.445,1.261 0.03,0.525 0.092,1.048 0.169,1.562 m -2.202,-21.818 c 0.97,-0.273 1.931,-0.546 2.897,-0.82 0.636,-0.175 0.29,-0.902 0.306,-1.49 -2.409,0.684 -4.827,1.372 -7.243,2.06 0.347,0.479 0.511,1.247 1.141,1.066 0.965,-0.269 1.932,-0.542 2.899,-0.816 m 1.975,5.479 c 0.7,-0.197 1.398,-0.397 2.094,-0.593 0.061,-0.021 -0.276,-1.328 -0.308,-1.459 -1.692,0.486 -3.381,0.966 -5.072,1.448 0.184,0.396 0.286,1.452 0.751,1.327 0.848,-0.244 1.691,-0.485 2.535,-0.723 m -1.666,4.527 c 0.129,0.338 0.224,0.696 0.277,1.057 1.616,-0.464 3.232,-0.931 4.846,-1.395 -0.458,-1.317 -0.519,-1.003 -1.89,-0.606 -1.078,0.314 -2.156,0.628 -3.233,0.944 m -23.312,-19.31 c 0.563,0.828 1.126,1.649 1.687,2.478 0.562,0.826 1.122,1.65 1.685,2.477 0.367,0.539 0.992,0.05 1.545,-0.136 -1.41,-2.099 -2.824,-4.199 -4.233,-6.301 -0.327,0.505 -1.052,0.938 -0.684,1.482 m -3.08,5.766 c 0.453,0.674 0.906,1.346 1.353,2.019 0.148,0.217 1.147,-0.545 1.351,-0.679 -0.985,-1.471 -1.968,-2.941 -2.954,-4.407 -0.181,0.186 -1.21,0.889 -1.103,1.052 0.451,0.669 0.905,1.342 1.353,2.015 m -2.758,4.904 c 1.113,-0.837 0.775,-0.849 0.005,-2.007 -0.614,-0.933 -1.228,-1.858 -1.843,-2.785 -0.322,0.168 -0.641,0.357 -0.948,0.556 0.93,1.412 1.858,2.826 2.786,4.236 m -4.011,3.174 c 0.168,-0.154 1.052,-0.753 0.94,-0.927 -0.307,-0.46 -0.619,-0.927 -0.924,-1.389 -0.712,-1.064 -1.423,-2.135 -2.137,-3.2 -0.392,0.174 -0.782,0.362 -1.167,0.557 1.096,1.654 2.192,3.308 3.288,4.959 m 11.371,-33.798 c -0.616,0.788 -1.224,1.57 -1.836,2.355 -0.4,0.513 0.281,0.919 0.607,1.404 1.542,-1.964 3.082,-3.933 4.624,-5.904 -0.568,-0.172 -1.165,-0.723 -1.566,-0.207 -0.61,0.784 -1.222,1.569 -1.829,2.352 m -4.74,-3.396 c -0.477,0.612 -0.952,1.225 -1.429,1.837 -0.043,0.057 0.99,0.933 1.095,1.031 1.096,-1.395 2.191,-2.79 3.287,-4.179 -0.228,-0.141 -1.203,-0.94 -1.36,-0.733 -0.532,0.678 -1.062,1.36 -1.593,2.044 m -5.351,-1.257 c 1.12,0.844 1.027,0.497 1.889,-0.596 0.69,-0.882 1.376,-1.758 2.067,-2.634 -0.275,-0.247 -0.553,-0.49 -0.834,-0.723 -1.041,1.313 -2.079,2.634 -3.122,3.953 m -4.29,-2.784 c 0.203,0.116 1.039,0.76 1.184,0.58 0.346,-0.442 0.696,-0.884 1.041,-1.323 0.801,-1.015 1.6,-2.03 2.4,-3.045 -0.345,-0.282 -0.668,-0.607 -0.947,-0.95 -1.226,1.579 -2.452,3.156 -3.678,4.738 m 33.002,-0.71 c -0.61,-0.226 -0.794,0.593 -1.18,1.042 2.344,0.857 4.682,1.709 7.022,2.565 -0.021,-0.593 0.319,-1.35 -0.291,-1.577 -0.927,-0.335 -1.853,-0.678 -2.775,-1.015 -0.927,-0.336 -1.85,-0.68 -2.776,-1.015 m 4.869,-4.384 c -0.806,-0.296 -1.612,-0.587 -2.416,-0.885 -0.264,-0.094 -0.634,1.109 -0.737,1.352 1.653,0.596 3.307,1.188 4.962,1.785 0.027,-0.142 0.382,-1.452 0.359,-1.462 -0.727,-0.267 -1.445,-0.527 -2.168,-0.79 m -0.811,-5.608 c -0.114,0.362 -0.244,0.716 -0.39,1.057 1.577,0.578 3.16,1.154 4.737,1.726 0.09,-0.358 0.219,-0.721 0.389,-1.056 -1.576,-0.576 -3.162,-1.151 -4.736,-1.727 m 12.141,26.128 c 0.018,-0.428 -1.017,-0.533 -1.386,-0.66 -0.091,2.509 -0.182,5.018 -0.277,7.523 0.555,-0.211 1.384,-0.11 1.406,-0.761 0.045,-0.99 0.081,-1.979 0.125,-2.969 0.047,-1.046 0.086,-2.089 0.132,-3.133 m 5.744,0.768 c 0.005,-0.022 -1.348,-0.173 -1.502,-0.198 -0.053,1.76 -0.107,3.527 -0.166,5.291 0.262,-0.031 1.502,0.045 1.51,-0.186 0.029,-0.859 0.055,-1.727 0.086,-2.588 0.023,-0.773 0.05,-1.548 0.072,-2.319 m 5.021,0.13 c -1.401,0 -1.127,0.231 -1.187,1.63 -0.051,1.129 -0.1,2.258 -0.15,3.387 1.42,0.201 1.129,-0.294 1.187,-1.589 0.052,-1.144 0.098,-2.286 0.15,-3.428 M -5.459,0.56 C -7.093,0.503 -6.803,0.9 -6.865,2.411 -6.917,3.708 -6.969,5.004 -7.018,6.3 c 0.44,0.085 0.888,0.143 1.335,0.165 0.077,-1.968 0.15,-3.94 0.224,-5.905 m -18.613,39.621 c 0.18,-0.08 1.334,-0.483 1.395,-0.671 0.082,-0.26 -0.615,-1.313 -0.733,-1.565 -0.485,-1.044 -0.972,-2.084 -1.454,-3.13 -0.872,-1.871 -1.595,-3.893 -2.184,-5.867 -1.836,-6.17 -3.399,-15.435 4.17,-18.468 7.003,-2.806 15.076,-0.945 22.156,0.611 0.118,-0.597 0.287,-1.21 0.35,-1.817 0.078,-0.79 -1.391,-0.725 -2.066,-0.865 -1.369,-0.3 -2.738,-0.57 -4.125,-0.781 -2.933,-0.448 -5.862,-0.774 -8.832,-0.774 -3.477,0 -7.41,0.498 -10.349,2.508 -2.992,2.049 -4.456,5.536 -4.456,9.105 0,7.629 3.016,14.874 6.128,21.714 m 8.972,-5.522 c 0.224,-0.169 1.176,-0.783 1.227,-1.054 0.051,-0.271 -0.726,-1.318 -0.882,-1.617 -0.502,-0.951 -0.937,-1.936 -1.289,-2.951 -0.643,-1.842 -0.975,-4.062 0.334,-5.684 1.41,-1.758 3.735,-1.724 5.77,-1.882 1.037,-0.083 2.175,0.139 3.208,0.239 0.608,0.058 1.218,0.168 1.821,0.259 0.467,0.071 0.513,-0.419 0.736,-0.796 -2.4,-0.626 -4.996,-1.443 -7.498,-1.443 -1.919,0 -5.121,-0.332 -6.343,1.62 -2.436,3.888 0.968,9.834 2.916,13.309" />
    </g>
    <g
       transform="matrix(1.0405892,0,0,-1.0405892,53.054212,13.368386)"
       id="g1198">
      <path
         id="path1200"
         style="fill:#e7a614;fill-opacity:1;fill-rule:evenodd;stroke:none"
         d="m 0,0 c -0.147,0.008 -1.557,0.074 -1.562,0.197 -0.023,0.573 -0.054,1.142 -0.075,1.714 -0.07,1.521 -0.135,3.036 -0.202,4.554 0.522,0.067 1.042,0.16 1.562,0.283 C -0.187,4.498 -0.095,2.249 0,0" />
    </g>
    <g
       transform="matrix(1.0405892,0,0,-1.0405892,47.373635,12.958811)"
       id="g1202">
      <path
         id="path1204"
         style="fill:#e7a614;fill-opacity:1;fill-rule:evenodd;stroke:none"
         d="M 0,0 C -0.125,0.013 -1.232,0.065 -1.232,0.087 -1.249,0.597 -1.273,1.115 -1.296,1.63 -1.35,2.849 -1.401,4.071 -1.452,5.296 -1.021,5.318 -0.592,5.375 -0.171,5.46 -0.114,3.642 -0.058,1.817 0,0" />
    </g>
    <g
       transform="matrix(1.0405892,0,0,-1.0405892,42.268711,12.905005)"
       id="g1206">
      <path
         id="path1208"
         style="fill:#e7a614;fill-opacity:1;fill-rule:evenodd;stroke:none"
         d="m 0,0 c -0.09,-0.104 -1.339,-0.052 -1.339,-0.02 -0.019,0.523 -0.04,1.052 -0.055,1.579 -0.038,1.115 -0.076,2.234 -0.112,3.347 0.155,0 1.336,0.033 1.336,-0.03 0.021,-0.522 0.039,-1.04 0.055,-1.563 C -0.096,2.756 0.35,0.431 0,0" />
    </g>
    <g
       transform="matrix(1.0405892,0,0,-1.0405892,36.640474,13.391688)"
       id="g1210">
      <path
         id="path1212"
         style="fill:#e7a614;fill-opacity:1;fill-rule:evenodd;stroke:none"
         d="M 0,0 C 0.003,-0.066 -1.554,-0.316 -1.727,-0.366 -1.801,1.676 -1.875,3.723 -1.948,5.765 -1.652,5.729 -0.169,5.675 -0.162,5.422 -0.134,4.475 -0.104,3.523 -0.075,2.573 -0.051,1.713 -0.027,0.856 0,0" />
    </g>
    <g
       transform="matrix(1.0405892,0,0,-1.0405892,26.432294,40.448573)"
       id="g1214">
      <path
         id="path1216"
         style="fill:#e7a614;fill-opacity:1;fill-rule:evenodd;stroke:none"
         d="m 0,0 c 0.141,-0.383 0.31,-0.755 0.503,-1.115 -1.69,-0.629 -3.378,-1.261 -5.072,-1.892 -0.095,0.417 -0.227,0.829 -0.389,1.225 C -3.303,-1.188 -1.649,-0.59 0,0" />
    </g>
    <g
       transform="matrix(1.0405892,0,0,-1.0405892,23.364849,37.491423)"
       id="g1218">
      <path
         id="path1220"
         style="fill:#e7a614;fill-opacity:1;fill-rule:evenodd;stroke:none"
         d="M 0,0 C -1.042,-0.39 -2.082,-0.782 -3.127,-1.168 -3.263,-0.74 -3.413,-0.312 -3.569,0.115 -2.028,0.673 -0.486,1.23 1.058,1.788 1.582,0.349 1.425,0.53 0,0" />
    </g>
    <g
       transform="matrix(1.0405892,0,0,-1.0405892,23.012714,29.719992)"
       id="g1222">
      <path
         id="path1224"
         style="fill:#e7a614;fill-opacity:1;fill-rule:evenodd;stroke:none"
         d="m 0,0 c 0.037,-0.292 0.401,-1.68 0.169,-1.769 -0.882,-0.331 -1.768,-0.665 -2.652,-0.997 -0.797,-0.3 -1.595,-0.598 -2.392,-0.899 0.008,0 -0.775,1.407 -0.866,1.549 C -3.824,-1.412 -1.917,-0.708 0,0" />
    </g>
    <g
       transform="matrix(1.0405892,0,0,-1.0405892,-14.738087,35.752185)"
       id="g1226">
      <path
         id="path1228"
         style="fill:#e7a614;fill-opacity:1;fill-rule:evenodd;stroke:none"
         d="m 0,0 c -0.386,-0.36 -0.734,-0.75 -1.056,-1.17 -1.396,1.765 -2.792,3.534 -4.183,5.298 0.121,0.069 1.308,0.811 1.356,0.758 C -3.53,4.44 -3.177,3.995 -2.825,3.552 -1.88,2.366 -0.943,1.185 0,0" />
    </g>
    <g
       transform="matrix(1.0405892,0,0,-1.0405892,-15.377216,28.44319)"
       id="g1230">
      <path
         id="path1232"
         style="fill:#e7a614;fill-opacity:1;fill-rule:evenodd;stroke:none"
         d="M 0,0 C 1.277,0.73 1.092,0.626 2.031,-0.569 2.784,-1.532 3.537,-2.496 4.293,-3.455 3.976,-3.729 3.66,-4.011 3.345,-4.293 2.23,-2.861 1.114,-1.432 0,0" />
    </g>
    <g
       transform="matrix(1.0405892,0,0,-1.0405892,-9.9477359,27.079392)"
       id="g1234">
      <path
         id="path1236"
         style="fill:#e7a614;fill-opacity:1;fill-rule:evenodd;stroke:none"
         d="M 0,0 C -0.61,0.775 -1.587,1.298 -0.647,1.979 0.212,2.594 0.45,1.609 1.062,0.831 1.679,0.045 2.3,-0.746 2.921,-1.533 2.54,-1.776 2.18,-2.056 1.859,-2.37 1.241,-1.58 0.62,-0.791 0,0" />
    </g>
    <g
       transform="matrix(1.0405892,0,0,-1.0405892,-5.1710187,24.067408)"
       id="g1238">
      <path
         id="path1240"
         style="fill:#e7a614;fill-opacity:1;fill-rule:evenodd;stroke:none"
         d="M 0,0 C -0.552,0.707 -1.106,1.412 -1.658,2.116 -1.785,2.277 -0.673,3.297 -0.5,3.483 0.742,1.868 1.988,0.251 3.233,-1.361 2.989,-1.493 1.798,-2.284 1.66,-2.112 1.105,-1.409 0.555,-0.706 0,0" />
    </g>
    <g
       transform="matrix(1.0405892,0,0,-1.0405892,-19.145814,-8.4372627)"
       id="g1242">
      <path
         id="path1244"
         style="fill:#e7a614;fill-opacity:1;fill-rule:evenodd;stroke:none"
         d="M 0,0 C -0.468,0.212 -0.936,0.436 -1.394,0.669 -0.168,2.528 1.059,4.387 2.285,6.244 2.387,6.159 3.497,5.301 3.44,5.217 3.128,4.74 2.813,4.267 2.501,3.789 1.667,2.528 0.834,1.263 0,0" />
    </g>
    <g
       transform="matrix(1.0405892,0,0,-1.0405892,-12.419654,-11.280569)"
       id="g1246">
      <path
         id="path1248"
         style="fill:#e7a614;fill-opacity:1;fill-rule:evenodd;stroke:none"
         d="M 0,0 C 0.092,-0.073 1,-0.728 0.987,-0.751 0.705,-1.177 0.419,-1.604 0.134,-2.03 -0.546,-3.042 -1.22,-4.059 -1.895,-5.069 -2.281,-4.894 -2.652,-4.689 -3.009,-4.458 -2.004,-2.973 -1.003,-1.489 0,0" />
    </g>
    <g
       transform="matrix(1.0405892,0,0,-1.0405892,-8.301416,-8.2655635)"
       id="g1250">
      <path
         id="path1252"
         style="fill:#e7a614;fill-opacity:1;fill-rule:evenodd;stroke:none"
         d="M 0,0 C 0.354,-0.266 0.727,-0.507 1.113,-0.722 0.204,-2.1 -0.703,-3.471 -1.615,-4.851 -1.974,-4.584 -2.347,-4.343 -2.732,-4.123 -1.821,-2.75 -0.912,-1.378 0,0" />
    </g>
    <g
       transform="matrix(1.0405892,0,0,-1.0405892,-5.057697,-2.9904086)"
       id="g1254">
      <path
         id="path1256"
         style="fill:#e7a614;fill-opacity:1;fill-rule:evenodd;stroke:none"
         d="M 0,0 C 0.501,0.747 1.003,1.495 1.502,2.247 1.633,2.438 2.889,1.673 3.125,1.558 1.974,-0.15 0.82,-1.862 -0.331,-3.57 -0.521,-3.38 -1.628,-2.454 -1.494,-2.25 -0.996,-1.505 -0.497,-0.753 0,0" />
    </g>
    <g
       transform="matrix(1.0405892,0,0,-1.0405892,24.636657,-15.979039)"
       id="g1258">
      <path
         id="path1260"
         style="fill:#e7a614;fill-opacity:1;fill-rule:evenodd;stroke:none"
         d="m 0,0 c -0.168,-0.417 -0.299,-0.845 -0.389,-1.284 -1.577,0.465 -3.156,0.93 -4.736,1.391 0.12,0.428 0.229,0.854 0.333,1.285 C -3.192,0.927 -1.597,0.461 0,0" />
    </g>
    <g
       transform="matrix(1.0405892,0,0,-1.0405892,20.760357,-11.257676)"
       id="g1262">
      <path
         id="path1264"
         style="fill:#e7a614;fill-opacity:1;fill-rule:evenodd;stroke:none"
         d="M 0,0 C 0.827,-0.233 1.649,-0.462 2.47,-0.694 2.561,-0.722 2.307,-2.238 2.28,-2.43 c -1.972,0.558 -3.94,1.112 -5.91,1.67 0.121,0.25 0.647,1.597 0.895,1.531 C -1.826,0.514 -0.913,0.257 0,0" />
    </g>
    <g
       transform="matrix(1.0405892,0,0,-1.0405892,21.623112,-27.977762)"
       id="g1266">
      <path
         id="path1268"
         style="fill:#e7a614;fill-opacity:1;fill-rule:evenodd;stroke:none"
         d="M 0,0 C 2.154,-0.591 4.308,-1.187 6.466,-1.779 6.408,-1.898 5.849,-3.229 5.825,-3.223 5.274,-3.064 4.731,-2.905 4.186,-2.751 2.733,-2.335 1.281,-1.917 -0.169,-1.503 -0.073,-1.003 -0.025,-0.502 0,0" />
    </g>
    <g
       transform="matrix(1.0405892,0,0,-1.0405892,26.200034,-20.844525)"
       id="g1270">
      <path
         id="path1272"
         style="fill:#e7a614;fill-opacity:1;fill-rule:evenodd;stroke:none"
         d="m 0,0 c -0.391,-1.412 -0.552,-1.121 -1.896,-0.729 -1.167,0.334 -2.337,0.673 -3.505,1.012 0.071,0.407 0.15,0.815 0.219,1.221 C -3.454,1.004 -1.725,0.505 0,0" />
    </g>
    <g
       transform="matrix(1.0405892,0,0,-1.0405892,22.690656,47.454757)"
       id="g1274">
      <path
         id="path1276"
         style="fill:#e7a614;fill-opacity:1;fill-rule:evenodd;stroke:none"
         d="M 0,0 C 0.54,0.199 1.074,0.395 1.608,0.59 3.033,1.116 4.459,1.642 5.887,2.165 6.136,1.693 6.389,1.231 6.662,0.773 4.551,-0.009 2.428,-0.791 0.31,-1.568 0.282,-1.432 -0.067,-0.024 0,0" />
    </g>
    <g
       transform="matrix(1.0405892,0,0,-1.0405892,44.413474,-18.353868)"
       id="g1278">
      <path
         id="path1280"
         style="fill:#e7a614;fill-opacity:1;fill-rule:evenodd;stroke:none"
         d="M 0,0 C 1.351,-1.425 2.54,-2.917 3.677,-4.513 2.512,-4.704 -0.073,-5.353 -0.947,-4.179 -1.756,-3.089 -0.491,-0.981 0,0" />
    </g>
    <g
       transform="matrix(1.0405892,0,0,-1.0405892,35.597913,-25.600848)"
       id="g1282">
      <path
         id="path1284"
         style="fill:#e7a614;fill-opacity:1;fill-rule:evenodd;stroke:none"
         d="m 0,0 c 1.209,-0.699 0.683,-1.072 0.144,-2.265 -0.343,-0.768 -0.632,-1.574 -0.943,-2.36 -0.693,-1.767 -1.327,-3.529 -1.729,-5.386 -0.759,-3.469 -1.193,-7.399 1.382,-10.233 2.341,-2.577 6.791,-2.336 9.907,-1.947 1.726,0.216 3.467,0.602 5.14,1.047 0.962,0.252 1.907,0.538 2.854,0.836 0.156,0.048 0.651,-1.655 0.747,-1.924 -3.457,-0.958 -7.041,-1.924 -10.641,-2.066 -3.274,-0.131 -7.798,0.142 -9.648,3.372 C -6.312,-14.755 -2.507,-5.903 0,0" />
    </g>
    <g
       transform="matrix(1.0405892,0,0,-1.0405892,1.2681505,-30.013778)"
       id="g1286">
      <path
         id="path1288"
         style="fill:#e7a614;fill-opacity:1;fill-rule:evenodd;stroke:none"
         d="M 0,0 C -0.236,-1.174 -0.431,-3.886 -1.839,-4.294 -3.148,-4.675 -4.664,-2.863 -5.462,-2.068 -3.656,-1.312 -1.864,-0.598 0,0" />
    </g>
    <g
       transform="matrix(1.0405892,0,0,-1.0405892,-13.108627,-22.29822)"
       id="g1290">
      <path
         id="path1292"
         style="fill:#e7a614;fill-opacity:1;fill-rule:evenodd;stroke:none"
         d="m 0,0 c 0.423,-0.386 0.848,-0.78 1.272,-1.172 0.595,-0.544 1.24,-1.055 1.877,-1.557 1.474,-1.169 2.988,-2.356 4.588,-3.344 2.872,-1.774 6.704,-3.48 10.008,-1.954 3.379,1.565 4.545,5.594 5.158,8.973 0.327,1.832 0.488,3.633 0.607,5.49 0.034,0.508 -0.157,2.358 0.115,2.648 0.235,0.254 1.667,0.057 2.005,0.057 C 25.472,3.316 25.152,-8.042 17.939,-9.754 14.469,-10.573 10.821,-8.774 7.882,-7.106 4.721,-5.322 1.901,-2.91 -0.897,-0.613 -0.755,-0.513 -0.104,0.096 0,0" />
    </g>
    <g
       transform="matrix(1.0405892,0,0,-1.0405892,-28.599572,15.744252)"
       id="g1294">
      <path
         id="path1296"
         style="fill:#e7a614;fill-opacity:1;fill-rule:evenodd;stroke:none"
         d="M 0,0 C -0.269,1.976 -0.336,3.918 -0.336,5.905 0.843,5.318 3.013,4.491 3.261,3.009 3.503,1.571 0.983,0.552 0,0" />
    </g>
    <g
       transform="matrix(1.0405892,0,0,-1.0405892,-25.696741,26.761907)"
       id="g1298">
      <path
         id="path1300"
         style="fill:#e7a614;fill-opacity:1;fill-rule:evenodd;stroke:none"
         d="m 0,0 c -0.582,1.187 -0.105,1.174 0.97,1.799 0.688,0.405 1.363,0.826 2.04,1.239 1.497,0.92 2.969,1.903 4.318,3.035 2.502,2.105 5.131,4.678 5.584,8.063 0.927,6.98 -9.613,10.458 -14.585,12.225 0.265,0.619 0.398,1.308 0.609,1.949 5.705,-2.114 15.665,-5.561 15.665,-12.984 0,-3.659 -3.265,-6.69 -5.7,-8.998 C 6.263,3.83 3.049,1.936 0,0" />
    </g>
    <g
       transform="matrix(1.0405892,0,0,-1.0405892,-0.53258633,50.593281)"
       id="g1302">
      <path
         id="path1304"
         style="fill:#e7a614;fill-opacity:1;fill-rule:evenodd;stroke:none"
         d="M 0,0 C 0.853,0.804 2.6,2.996 3.985,2.535 5.335,2.081 5.546,-0.396 5.745,-1.561 3.78,-1.197 1.883,-0.679 0,0" />
    </g>
    <g
       transform="matrix(1.0405892,0,0,-1.0405892,15.317556,51.080589)"
       id="g1306">
      <path
         id="path1308"
         style="fill:#e7a614;fill-opacity:1;fill-rule:evenodd;stroke:none"
         d="M 0,0 C -0.168,0.797 -0.335,1.6 -0.546,2.387 -1.037,4.23 -1.582,6.02 -2.317,7.78 -3.477,10.569 -5.571,14.878 -9,15.362 -12.757,15.896 -15.902,13.846 -18.536,11.355 -19.805,10.158 -21,8.858 -22.093,7.492 -22.727,6.7 -23.355,5.897 -23.972,5.096 c -0.354,-0.461 -1.428,0.651 -1.843,0.942 3.551,4.638 10.337,13.516 17.218,10.951 3.506,-1.31 5.421,-5.254 6.874,-8.426 C -0.236,5.318 0.604,1.737 1.489,-1.703 0.076,-1.908 0.274,-1.29 0,0" />
    </g>
    <g
       transform="matrix(1.0405892,0,0,-1.0405892,47.254695,36.215556)"
       id="g1310">
      <path
         id="path1312"
         style="fill:#e7a614;fill-opacity:1;fill-rule:evenodd;stroke:none"
         d="M 0,0 C -0.539,1.073 -2.034,3.443 -1.118,4.627 -0.256,5.734 2.092,5.14 3.232,4.961 2.205,3.273 1.113,1.634 0,0" />
    </g>
    <g
       transform="matrix(1.0405892,0,0,-1.0405892,52.558789,21.264271)"
       id="g1314">
      <path
         id="path1316"
         style="fill:#e7a614;fill-opacity:1;fill-rule:evenodd;stroke:none"
         d="m 0,0 c -0.799,0.093 -1.612,0.106 -2.411,0.155 -1.891,0.124 -3.748,0.101 -5.646,0.028 -3.08,-0.118 -7.638,-1.022 -9.252,-4.014 -1.846,-3.437 -0.582,-6.991 0.865,-10.315 0.702,-1.611 1.648,-3.1 2.583,-4.58 0.536,-0.853 1.081,-1.697 1.643,-2.54 0.301,-0.452 -1.067,-1.172 -1.46,-1.462 -3.218,4.745 -9.887,14.414 -4.905,19.951 2.485,2.769 6.472,3.325 9.953,3.726 C -5.103,1.352 -1.437,1.142 2.095,0.85 1.881,-0.568 1.281,-0.148 0,0" />
    </g>
    <g
       transform="matrix(1.0405892,0,0,-1.0405892,-28.769808,74.079693)"
       id="g1318">
      <path
         id="path1320"
         style="fill:#b32317;fill-opacity:1;fill-rule:nonzero;stroke:none"
         d="m 0,0 c 0,1.531 -0.522,2.77 -1.24,3.322 -0.031,0.031 -0.095,0.098 -0.095,0.129 0,0.068 0.064,0.163 0.129,0.163 h 1.529 c 4.427,0 5.893,-3.644 6.25,-4.458 l 3.452,-8.008 3.515,8.075 c 1.074,2.342 1.985,4.391 6.186,4.391 h 1.496 c 0.097,0 0.162,-0.064 0.162,-0.129 0,-0.098 -0.098,-0.163 -0.227,-0.261 -0.846,-0.748 -1.202,-2.083 -1.202,-3.481 v -15.041 c 0,-1.625 0.454,-2.829 1.202,-3.483 0.129,-0.096 0.227,-0.16 0.227,-0.26 0,-0.064 -0.065,-0.129 -0.162,-0.129 h -1.267 c -2.086,0 -3.811,1.725 -3.811,3.872 V -0.257 L 11.49,-11.129 c -0.49,-1.076 -0.033,-1.696 -0.033,-1.726 0,-0.068 -0.066,-0.164 -0.163,-0.164 H 10.35 c -1.336,0 -2.897,0.944 -3.613,2.671 l -4.038,9.993 v -15.56 c 0,-2.442 -1.822,-3.159 -2.992,-3.255 h -0.88 c -0.067,0 -0.129,0.096 -0.129,0.162 0,0.032 0.062,0.096 0.096,0.131 0.684,0.52 1.14,1.594 1.206,2.898 z" />
    </g>
    <g
       transform="matrix(1.0405892,0,0,-1.0405892,2.7994792,83.901285)"
       id="g1322">
      <path
         id="path1324"
         style="fill:#b32317;fill-opacity:1;fill-rule:nonzero;stroke:none"
         d="M 0,0 C -0.033,-0.099 4.492,0.129 4.979,1.725 L 2.862,7.519 Z M -6.675,-9.7 C -7,-9.667 -7,-9.439 -6.739,-9.309 c 0.488,0.26 0.781,0.62 1.204,1.563 l 0.716,1.823 6.381,15.949 c 0.295,0.684 -0.129,2.182 -0.847,2.735 -0.031,0.03 -0.099,0.098 -0.099,0.129 0,0.068 0.068,0.162 0.165,0.162 h 1.432 c 1.173,0 2.831,-0.879 3.482,-2.699 L 12.24,-5.956 c 0.521,-1.366 1.17,-2.898 2.051,-3.353 0.326,-0.164 0.258,-0.423 0.097,-0.423 h -1.27 c -1.368,0 -3.841,0.619 -4.624,2.604 l -2.439,6.25 C 4.459,-1.366 1.204,-2.049 0.651,-2.276 c -1.694,-0.685 -1.955,-1.239 -2.702,-2.932 0,0 -0.098,0 -0.91,-2.149 -0.099,-0.294 -0.262,-0.551 -0.425,-0.783 -0.552,-0.842 -1.56,-1.56 -2.441,-1.56 -0.099,0 -0.195,-0.032 -0.325,-0.032 h -0.132 z" />
    </g>
    <g
       transform="matrix(1.0405892,0,0,-1.0405892,21.121657,74.079693)"
       id="g1326">
      <path
         id="path1328"
         style="fill:#b32317;fill-opacity:1;fill-rule:nonzero;stroke:none"
         d="m 0,0 c 0,1.531 -0.521,2.77 -1.234,3.322 -0.037,0.031 -0.098,0.098 -0.098,0.129 0,0.068 0.061,0.163 0.131,0.163 h 1.529 c 4.428,0 5.891,-3.644 6.25,-4.458 l 3.45,-8.008 3.515,8.075 c 1.075,2.342 1.987,4.391 6.185,4.391 h 1.497 c 0.097,0 0.164,-0.064 0.164,-0.129 0,-0.098 -0.101,-0.163 -0.228,-0.261 -0.846,-0.748 -1.205,-2.083 -1.205,-3.481 v -15.041 c 0,-1.625 0.454,-2.829 1.205,-3.483 0.127,-0.096 0.228,-0.16 0.228,-0.26 0,-0.064 -0.067,-0.129 -0.164,-0.129 h -1.269 c -2.081,0 -3.809,1.725 -3.809,3.872 v 15.041 l -4.656,-10.872 c -0.486,-1.076 -0.031,-1.696 -0.031,-1.726 0,-0.068 -0.065,-0.164 -0.16,-0.164 h -0.948 c -1.331,0 -2.893,0.944 -3.612,2.671 l -4.035,9.993 v -15.56 c 0,-2.442 -1.822,-3.159 -2.996,-3.255 H -1.17 c -0.064,0 -0.127,0.096 -0.127,0.162 0,0.032 0.063,0.096 0.096,0.131 0.68,0.52 1.14,1.594 1.201,2.898 z" />
    </g>
    <g
       transform="matrix(1.0405892,0,0,-1.0405892,52.689903,83.901285)"
       id="g1330">
      <path
         id="path1332"
         style="fill:#b32317;fill-opacity:1;fill-rule:nonzero;stroke:none"
         d="M 0,0 C -0.031,-0.099 4.496,0.129 4.985,1.725 L 2.869,7.519 Z m -6.669,-9.7 c -0.327,0.033 -0.327,0.261 -0.064,0.391 0.484,0.26 0.779,0.62 1.204,1.563 l 0.715,1.823 6.381,15.949 c 0.292,0.684 -0.131,2.182 -0.847,2.735 -0.031,0.03 -0.098,0.098 -0.098,0.129 0,0.068 0.067,0.162 0.164,0.162 h 1.431 c 1.172,0 2.833,-0.879 3.483,-2.699 l 6.542,-16.309 c 0.522,-1.366 1.174,-2.898 2.053,-3.353 0.323,-0.164 0.261,-0.423 0.096,-0.423 h -1.269 c -1.367,0 -3.842,0.619 -4.622,2.604 l -2.443,6.25 c -1.591,-0.488 -4.85,-1.171 -5.404,-1.398 -1.69,-0.685 -1.951,-1.239 -2.701,-2.932 0,0 -0.096,0 -0.91,-2.149 -0.1,-0.294 -0.261,-0.551 -0.425,-0.783 -0.553,-0.842 -1.563,-1.56 -2.439,-1.56 -0.098,0 -0.196,-0.032 -0.325,-0.032 h -0.132 z" />
    </g>
    <g
       transform="matrix(1.0405892,0,0,-1.0405892,-45.87647,110.16348)"
       id="g1334">
      <path
         id="path1336"
         style="fill:#b32317;fill-opacity:1;fill-rule:nonzero;stroke:none"
         d="M 0,0 C -0.028,-0.094 4.23,0.121 4.691,1.624 L 2.7,7.083 Z m -6.283,-9.139 c -0.307,0.033 -0.307,0.248 -0.061,0.37 0.46,0.248 0.735,0.584 1.136,1.473 l 0.67,1.716 6.01,15.022 c 0.278,0.643 -0.121,2.055 -0.797,2.576 -0.031,0.03 -0.092,0.089 -0.092,0.122 0,0.061 0.061,0.152 0.153,0.152 h 1.35 c 1.103,0 2.666,-0.829 3.279,-2.545 L 11.53,-5.611 c 0.49,-1.288 1.102,-2.73 1.928,-3.158 0.307,-0.153 0.246,-0.398 0.095,-0.398 h -1.197 c -1.287,0 -3.617,0.581 -4.353,2.454 l -2.3,5.883 C 4.2,-1.287 1.134,-1.932 0.616,-2.146 -0.98,-2.79 -1.225,-3.311 -1.93,-4.908 c 0,0 -0.093,0 -0.858,-2.021 -0.093,-0.276 -0.246,-0.52 -0.399,-0.737 -0.52,-0.797 -1.472,-1.473 -2.298,-1.473 -0.095,0 -0.186,-0.028 -0.308,-0.028 h -0.124 z" />
    </g>
    <g
       transform="matrix(1.0405892,0,0,-1.0405892,-27.818606,112.62061)"
       id="g1338">
      <path
         id="path1340"
         style="fill:#b32317;fill-opacity:1;fill-rule:nonzero;stroke:none"
         d="M 0,0 C 0.153,0 0.337,-0.246 0.307,-0.399 0.153,-1.443 0.4,-2.451 1.043,-3.433 1.593,-4.26 2.821,-5.335 5.12,-5.335 c 3.004,0 4.016,1.595 4.016,3.25 0,4.967 -11.16,4.475 -11.16,10.915 0,4.047 3.802,6.284 7.665,6.284 1.872,0 4.383,-0.889 5.701,-2.483 1.198,-1.534 -0.736,-3.926 -2.238,-3.404 0.309,1.994 -2.021,4.232 -4.107,4.232 -2.084,0 -3.586,-1.474 -3.586,-3.435 0,-5.059 11.157,-3.895 11.157,-10.79 0,-4.262 -4.014,-6.5 -7.876,-6.5 -2.608,0 -6.868,1.625 -7.236,3.526 C -2.882,-1.959 -1.931,0 0,0" />
    </g>
    <g
       transform="matrix(1.0405892,0,0,-1.0405892,1.8193523,108.82414)"
       id="g1342">
      <path
         id="path1344"
         style="fill:#b32317;fill-opacity:1;fill-rule:nonzero;stroke:none"
         d="m 0,0 h -5.426 c -0.89,0 -1.749,-0.49 -2.084,-0.891 v -5.915 c 0,-2.026 -1.627,-3.649 -3.589,-3.649 h -1.195 c -0.093,0 -0.153,0.061 -0.153,0.124 0,0.092 0.093,0.153 0.214,0.244 0.704,0.615 1.134,1.747 1.134,3.281 V 7.359 c 0,1.317 -0.338,2.573 -1.134,3.279 -0.121,0.092 -0.214,0.154 -0.214,0.246 0,0.062 0.06,0.121 0.153,0.121 h 1.195 c 1.962,0 3.589,-1.625 3.589,-3.646 v -5.55 h 5.455 c 0.918,0 1.748,0.58 2.086,0.981 0,0.028 -0.094,-0.031 -0.031,4.569 0.031,2.021 1.625,3.646 3.587,3.646 h 1.195 c 0.09,0 0.151,-0.059 0.151,-0.121 0,-0.092 -0.09,-0.154 -0.213,-0.246 C 3.923,9.932 3.587,8.676 3.587,7.359 V -6.806 c 0,-1.534 0.427,-2.666 1.133,-3.281 0.123,-0.091 0.213,-0.152 0.213,-0.244 0,-0.063 -0.061,-0.124 -0.151,-0.124 H 3.587 C 1.625,-10.455 0,-8.832 0,-6.806 Z" />
    </g>
    <g
       transform="matrix(1.0405892,0,0,-1.0405892,15.66106,110.16348)"
       id="g1346">
      <path
         id="path1348"
         style="fill:#b32317;fill-opacity:1;fill-rule:nonzero;stroke:none"
         d="M 0,0 C -0.025,-0.094 4.235,0.121 4.693,1.624 L 2.701,7.083 Z m -6.282,-9.139 c -0.307,0.033 -0.307,0.248 -0.062,0.37 0.462,0.248 0.735,0.584 1.136,1.473 l 0.673,1.716 6.008,15.022 c 0.277,0.643 -0.12,2.055 -0.795,2.576 -0.031,0.03 -0.092,0.089 -0.092,0.122 0,0.061 0.061,0.152 0.153,0.152 h 1.35 c 1.101,0 2.665,-0.829 3.279,-2.545 l 6.16,-15.358 c 0.493,-1.288 1.106,-2.73 1.931,-3.158 0.307,-0.153 0.247,-0.398 0.095,-0.398 h -1.196 c -1.29,0 -3.617,0.581 -4.354,2.454 l -2.3,5.883 C 4.206,-1.287 1.138,-1.932 0.615,-2.146 -0.979,-2.79 -1.224,-3.311 -1.928,-4.908 c 0,0 -0.093,0 -0.861,-2.021 -0.091,-0.276 -0.242,-0.52 -0.397,-0.737 -0.522,-0.797 -1.47,-1.473 -2.3,-1.473 -0.092,0 -0.183,-0.028 -0.307,-0.028 h -0.121 z" />
    </g>
    <g
       transform="matrix(1.0405892,0,0,-1.0405892,32.891232,100.59391)"
       id="g1350">
      <path
         id="path1352"
         style="fill:#b32317;fill-opacity:1;fill-rule:nonzero;stroke:none"
         d="m 0,0 c -0.062,0.95 -0.336,2.238 -1.138,2.821 l -0.087,0.122 c 0,0.061 0.061,0.153 0.122,0.153 H 0.03 c 2.268,0 4.14,-1.074 5.274,-2.941 l 7.512,-12.601 V 0.03 c 0,2.298 1.716,2.974 2.821,3.066 h 0.826 c 0.06,0 0.123,-0.092 0.123,-0.153 0,-0.032 -0.063,-0.091 -0.094,-0.122 C 15.85,2.328 15.42,1.319 15.359,0.092 V -14.99 c 0,-1.565 0.369,-2.575 1.104,-3.036 0.029,-0.03 0.06,-0.155 0.06,-0.187 0,-0.061 -0.031,-0.151 -0.09,-0.151 h -1.074 c -1.226,0.09 -2.914,0.551 -4.108,2.484 L 2.545,-1.533 v -13.765 c 0,-2.299 -1.718,-2.976 -2.82,-3.066 h -0.828 c -0.061,0 -0.122,0.09 -0.122,0.151 0,0.032 0.061,0.095 0.087,0.126 0.649,0.49 1.076,1.501 1.138,2.728 z" />
    </g>
    <g
       transform="matrix(1.0405892,0,0,-1.0405892,63.581538,99.288079)"
       id="g1354">
      <path
         id="path1356"
         style="fill:#b32317;fill-opacity:1;fill-rule:nonzero;stroke:none"
         d="m 0,0 v -15.97 c 0,-1.534 0.428,-2.666 1.131,-3.281 0.125,-0.091 0.216,-0.152 0.216,-0.244 0,-0.063 -0.06,-0.124 -0.152,-0.124 H 0 c -0.674,0 -1.192,0.368 -1.809,0.368 -0.643,0 -1.167,-0.368 -1.81,-0.368 h -1.193 c -0.091,0 -0.158,0.061 -0.158,0.124 0,0.092 0.096,0.153 0.22,0.244 0.703,0.615 1.131,1.747 1.131,3.281 V 0 H -5.915 C -7.94,0 -8.677,-0.765 -8.677,-1.5 v -0.063 c -0.149,-0.643 -1.47,0.186 -1.657,0.709 -0.427,1.133 0.371,2.695 2.424,2.695 H 4.26 c 2.055,0 2.849,-1.562 2.421,-2.695 C 6.53,-1.255 5.212,-2.268 5.026,-1.563 V -1.5 C 5.026,-0.765 4.292,0 2.268,0 Z" />
    </g>
    <g
       transform="matrix(1.0405892,0,0,-1.0405892,79.406301,119.32045)"
       id="g1358">
      <path
         id="path1360"
         style="fill:#b32317;fill-opacity:1;fill-rule:nonzero;stroke:none"
         d="m 0,0 c 0.118,-0.091 0.214,-0.152 0.214,-0.244 0,-0.063 -0.061,-0.124 -0.155,-0.124 H -1.137 C -1.778,-0.368 -2.334,0 -2.948,0 -3.557,0 -4.081,-0.368 -4.725,-0.368 H -5.92 c -0.093,0 -0.15,0.061 -0.15,0.124 0,0.092 0.089,0.153 0.214,0.244 0.703,0.615 1.131,1.747 1.131,3.281 V 17.6 c -0.028,1.254 -0.365,2.449 -1.131,3.125 -0.125,0.092 -0.214,0.153 -0.214,0.246 0,0.062 0.057,0.121 0.15,0.121 h 1.195 c 0.644,0 1.168,-0.367 1.777,-0.367 0.648,0 1.136,0.367 1.811,0.367 h 1.196 c 0.094,0 0.155,-0.059 0.155,-0.121 C 0.214,20.878 0.118,20.817 0,20.725 -0.77,20.049 -1.106,18.854 -1.137,17.6 V 3.281 C -1.137,1.747 -0.709,0.615 0,0" />
    </g>
  </g>
</svg>
